<svg xmlns="http://www.w3.org/2000/svg" width="139.75" height="30.994" viewBox="0 0 1267 281" class="logo_crax--1K9QqdOLL5Srb0i1vM3S8l">
<style>
.logo_crax--1K9QqdOLL5Srb0i1vM3S8l { fill:#00befc; }
</style>
<path id="CREX" class="cls_1" d="M466.537 126.96l22.122-26.714a79.725 79.725 0 0 0-26.923-18.471 81.108 81.108 0 0 0-32.14-6.783q-22.125 0-39.967 9.809a72.909 72.909 0 0 0-38.3 65.325q0 21.5 10.017 38.819a73.192 73.192 0 0 0 27.554 27.341q17.53 10.014 39.235 10.014a78.32 78.32 0 0 0 32.454-7.409 89.29 89.29 0 0 0 28.279-19.931l-22.331-24a59.5 59.5 0 0 1-17.532 12.522 44.29 44.29 0 0 1-18.783 4.592 37.945 37.945 0 0 1-20.14-5.531 39.154 39.154 0 0 1-14.3-15.235 47.32 47.32 0 0 1 0-43.2 39.184 39.184 0 0 1 14.3-15.236 37.971 37.971 0 0 1 20.14-5.53 40.477 40.477 0 0 1 19.41 5.322 54.6 54.6 0 0 1 16.9 14.3zm186.37 96.63l-30.471-47.79a46.183 46.183 0 0 0 19.41-18.679q6.677-12 6.678-28.488 0-24.418-15.966-37.88t-44.975-13.465h-65.742v146.3h38.193V183.1h28.383l21.288 40.489h43.2zm-92.873-115.831h27.757q11.686 0 18.053 5.739t6.366 16.384q0 11.064-6.366 16.905t-18.053 5.844h-27.757v-44.872zM689.639 223.59h117.5v-30.471h-79.307V165.57l69.707-.208V135.1h-69.707v-27.34h77.221V77.288H689.639v146.3zm196.18-74.507l-51.967 74.507h44.662l30.471-45.29 31.1 45.289h45.707L933.4 147.2l48.211-69.916h-45.077l-27.549 41.536-27.34-41.532h-44.454zm174.891 43.828l29.85-30.054q13.56-13.565 20.97-25.566t7.41-23.271a32.528 32.528 0 0 0-6.57-20.035 42.4 42.4 0 0 0-18.16-13.566 67.9 67.9 0 0 0-26.19-4.8q-30.48 0-60.74 21.914l14.61 28.176a85.588 85.588 0 0 1 20.77-13.671q10.74-4.9 19.51-4.9 7.935 0 12.32 3.235a10.849 10.849 0 0 1 4.38 9.287q0 4.593-3.97 11.062a75.448 75.448 0 0 1-10.22 12.939l-53.22 54.681.21 25.253h111.44v-30.684h-62.4zm187-29.845v-31.1h-35.06v31.1h-27.34l39.03-85.778h-36.32l-41.53 88.912v25.88h66.16v31.51h35.06v-31.514h18.78v-29.01h-18.78z"></path><path id="CREX24" class="cls_2" d="M237.882 39.787l-.263-.215a2.2162 2.2162 0 0 1-.1-.085c-8.112-6.487-18.395-9.645-31.819-7.58-24.046 3.7-24.354 19.113-24.354 19.113s-.206 1.13-7.707 8.323-10.481 19.729-10.481 19.729 11.714-.863 24.045-1.541 17.634 7.09 19.73 10.481 0 12.947 0 12.947a4.576 4.576 0 0 1 2.774-.616c1.172.308 0 2.774-1.849 5.857s-2.607 5.677-9.557 11.1a116.072 116.072 0 0 0-10.652 9.565 72.977 72.977 0 0 0-9.694 9.548s11.715-2.158 7.4 4.932-31.541 17.916-53.64-4.316c-26.345-26.5-31.629-53.581-30.827-83.85C102.039 9.839 126.786.155 126.786.155s-9.372-.433-22.2 10.481C99.3 15.136 80.024 36.107 89.4 87.85c-3.89-3.646-7.9-8.7-11.321-22.341C68.745 28.3 80.456 9.714 80.456 9.714S52.2 38.042 62.973 71.982a186.577 186.577 0 0 0 16.647 36.685S57.195 87.738 52.184 69.516C47.349 51.938 49.2 32.592 49.2 32.592s-30.565 42.548-1.024 85.632a179.405 179.405 0 0 0 24.97 28.976c-2.8-1.387-18.8-7.108-36.068-26.511-17.251-19.38-19.729-49.323-19.729-49.323s-12.244 38.6.925 59.188c14.656 22.911 44.414 40.033 47.515 41.776-2.817-1.564-27.513-15.038-42.274-15.264-15.67-.24-23.429-25.279-23.429-25.279s2.225 33 19.113 53.64 29.05 27.806 42.85 26.512 28.388 4.84 28.388 4.84-17.726-2.9-29.656-.067C49.6 219.363 26.808 213.8 24 213.093q-3.276-1.269-6.368-2.684a141.822 141.822 0 0 0 263.911-72.148c-.004-41.308-16.579-76.516-43.661-98.474z"></path></svg>